<?xml version="1.0" standalone="no"?>
<!DOCTYPE svg PUBLIC "-//W3C//DTD SVG 20010904//EN"
 "http://www.w3.org/TR/2001/REC-SVG-20010904/DTD/svg10.dtd">
<svg version="1.0" xmlns="http://www.w3.org/2000/svg"
 width="200.000000pt" height="200.000000pt" viewBox="0 0 200.000000 200.000000"
 preserveAspectRatio="xMidYMid meet">

<g transform="translate(0.000000,200.000000) scale(0.100000,-0.100000)"
fill="#000000" stroke="none">
<path d="M990 1610 c0 -33 4 -60 10 -60 6 0 10 27 10 60 0 33 -4 60 -10 60 -6
0 -10 -27 -10 -60z"/>
<path d="M967 1523 c-4 -3 -7 -24 -7 -45 0 -38 0 -38 40 -38 39 0 40 1 40 33
0 18 -5 38 -12 45 -13 13 -50 16 -61 5z m50 -29 c8 -21 -13 -42 -28 -27 -13
13 -5 43 11 43 6 0 13 -7 17 -16z"/>
<path d="M794 1462 c-34 -27 -44 -56 -44 -121 0 -56 -10 -76 -25 -51 -3 6 -24
10 -46 10 -46 0 -88 -34 -90 -72 -4 -92 26 -172 85 -230 37 -36 113 -78 140
-78 31 0 43 -11 38 -36 -6 -31 11 -31 32 1 16 24 21 25 116 25 95 0 100 -1
116 -25 21 -32 38 -32 32 -1 -5 25 7 36 38 36 27 0 103 42 140 78 59 58 89
138 85 230 -2 38 -44 72 -90 72 -22 0 -43 -4 -46 -10 -15 -25 -25 -5 -25 51 0
102 -32 138 -122 139 -32 0 -58 -4 -58 -10 0 -5 22 -10 49 -10 38 0 56 -6 78
-24 27 -23 28 -29 32 -122 4 -121 -9 -168 -52 -194 -28 -17 -51 -20 -177 -20
-126 0 -149 3 -177 20 -43 26 -56 73 -52 194 4 93 5 99 32 122 22 18 40 24 78
24 27 0 49 5 49 10 0 18 -113 11 -136 -8z m-69 -207 c14 -13 25 -36 25 -50 0
-35 24 -79 56 -104 25 -19 39 -21 194 -21 155 0 169 2 194 21 32 25 56 69 56
104 0 32 41 75 73 75 13 0 34 -11 47 -25 20 -21 22 -31 17 -80 -10 -95 -69
-174 -162 -217 -46 -21 -63 -23 -225 -23 -162 0 -179 2 -225 23 -93 43 -152
122 -162 217 -5 49 -3 59 17 80 30 32 64 32 95 0z"/>
<path d="M660 1210 c0 -23 25 -27 33 -6 7 16 -1 26 -20 26 -7 0 -13 -9 -13
-20z"/>
<path d="M1310 1210 c0 -11 7 -20 15 -20 8 0 15 9 15 20 0 11 -7 20 -15 20 -8
0 -15 -9 -15 -20z"/>
<path d="M923 1418 c-19 -24 -83 -139 -83 -149 0 -5 66 -9 160 -9 122 0 160 3
159 13 0 6 -19 44 -43 82 l-42 70 -70 3 c-49 2 -74 -1 -81 -10z m162 -59 c46
-73 51 -69 -85 -69 -136 0 -131 -4 -85 69 25 41 26 41 85 41 59 0 60 0 85 -41z"/>
<path d="M930 1237 c0 -22 44 -57 71 -57 26 0 69 37 69 58 0 8 -23 12 -70 12
-51 0 -70 -4 -70 -13z"/>
<path d="M1474 726 c-8 -22 3 -33 18 -18 9 9 9 15 0 24 -9 9 -13 7 -18 -6z"/>
<path d="M1545 730 c-3 -5 -1 -10 4 -10 16 0 14 -183 -1 -198 -9 -9 -3 -12 28
-11 21 0 33 3 27 6 -9 3 -13 36 -13 114 0 101 -1 109 -19 109 -11 0 -23 -4
-26 -10z"/>
<path d="M393 712 c23 -26 24 -164 1 -186 -14 -15 -10 -16 46 -16 103 0 150
36 150 114 0 68 -59 106 -164 106 -47 0 -48 -1 -33 -18z m136 -21 c27 -27 36
-83 19 -118 -25 -53 -100 -66 -112 -20 -3 12 -6 52 -6 90 l0 67 40 0 c26 0 47
-7 59 -19z"/>
<path d="M984 708 c23 -32 22 -155 -1 -180 -15 -17 -14 -18 33 -18 47 0 48 1
26 16 -15 11 -22 25 -22 50 0 39 21 46 52 17 17 -15 18 -14 18 27 l0 44 -21
-23 c-29 -30 -43 -22 -47 27 l-3 42 46 0 c38 0 47 -4 55 -22 9 -21 9 -20 7 7
l-2 30 -78 3 -79 3 16 -23z"/>
<path d="M1194 709 l-19 -22 33 17 c34 18 40 26 19 26 -8 0 -22 -10 -33 -21z"/>
<path d="M657 649 c-41 -24 -39 -106 3 -129 50 -27 120 11 120 65 0 55 -73 93
-123 64z m77 -21 c21 -30 20 -61 -2 -88 -34 -42 -93 7 -76 64 15 50 52 61 78
24z"/>
<path d="M830 640 c-45 -45 -13 -130 49 -130 16 0 34 7 41 16 12 13 10 14 -13
3 -23 -10 -30 -9 -47 6 -11 10 -20 29 -20 42 0 21 4 23 50 23 37 0 50 4 50 14
0 44 -75 61 -110 26z m78 -12 c3 -15 -4 -18 -32 -18 -38 0 -44 8 -24 28 17 17
52 11 56 -10z"/>
<path d="M1154 645 c-9 -24 6 -33 20 -12 11 15 46 25 46 13 0 -2 3 -11 6 -20
4 -10 -7 -21 -36 -36 -22 -11 -44 -28 -47 -36 -9 -24 21 -48 51 -40 33 8 34
25 1 18 -30 -5 -34 17 -7 41 27 24 46 22 39 -5 -11 -39 29 -79 48 -48 4 6 1 9
-7 8 -9 -2 -14 15 -18 62 l-5 65 -43 3 c-31 2 -44 -1 -48 -13z"/>
<path d="M1320 640 c-12 -12 -20 -33 -20 -55 0 -62 60 -96 106 -59 18 14 18
15 -4 4 -47 -23 -78 10 -70 75 4 38 31 54 59 37 22 -14 35 -10 24 7 -11 19
-73 13 -95 -9z"/>
<path d="M1455 650 c-3 -5 -1 -10 4 -10 15 0 14 -103 -1 -118 -9 -9 -3 -12 27
-12 30 0 36 3 27 12 -7 7 -12 39 -12 75 0 56 -2 63 -19 63 -11 0 -23 -4 -26
-10z"/>
</g>
</svg>
